<!-- <svg width="220" height="119" viewBox="0 0 370 119" fill="none" xmlns="http://www.w3.org/2000/svg">
<path d="M58.3999 21.2H62.9999C62.9999 21.2 66.1999 21.9999 68.2999 27.0999H64.1999C64.1999 27.0999 63.3999 24.1 58.3999 21.2Z" fill="#2C85C7"/>
<path d="M47.1 35.1V32.1C41.2 32.1 36.3 36.7 35.8 42.5C34.1 43.4 33 45.1 33 47.1C33 50 35.3 52.3 38.2 52.3C41.1 52.3 43.4 50 43.4 47.1C43.4 44.5 41.4 42.3 38.9 41.9C39.6 38.1 43 35.1 47.1 35.1ZM40.4 47.1C40.4 48.3 39.4 49.3 38.2 49.3C37 49.3 36 48.3 36 47.1C36 45.9 37 44.9 38.2 44.9C39.4 44.9 40.4 45.9 40.4 47.1Z" fill="url(#paint0_linear)"/>
<path d="M80.0999 64.8C77.1999 64.8 74.8999 67.1 74.8999 70C74.8999 70.9 75.1 71.7 75.5 72.4C67.9 79.9 57.7999 84 47.0999 84C24.7999 84 6.59995 65.8 6.59995 43.5C6.59995 42.4 6.59995 41.4 6.69995 40.3C9.19995 39.9 11.0999 37.7 11.0999 35.1C11.0999 32.2 8.79995 29.9 5.89995 29.9C2.99995 29.9 0.699951 32.3 0.699951 35.1C0.699951 37.2 1.99995 39.1 3.79995 39.9C3.69995 41.1 3.69995 42.3 3.69995 43.4C3.69995 67.4 23.1999 86.9 47.1999 86.9C58.6999 86.9 69.5 82.5 77.7 74.5C78.5 74.9 79.3 75.2 80.3 75.2C83.2 75.2 85.5 72.9 85.5 70C85.5 67.1 82.9999 64.8 80.0999 64.8ZM3.59995 35.2C3.59995 34 4.59995 33 5.79995 33C6.99995 33 7.99995 34 7.99995 35.2C7.99995 36.4 6.99995 37.4 5.79995 37.4C4.59995 37.5 3.59995 36.5 3.59995 35.2ZM80.0999 72.3C78.8999 72.3 77.8999 71.3 77.8999 70.1C77.8999 68.9 78.8999 67.9 80.0999 67.9C81.2999 67.9 82.3 68.9 82.3 70.1C82.3 71.3 81.2999 72.3 80.0999 72.3Z" fill="url(#paint1_linear)"/>
<path d="M88.8999 41C85.9999 41 83.6999 43.3 83.6999 46.2C83.6999 48.4 85.0999 50.3 86.9999 51.1C86.4999 53.6 85.7999 56 84.8999 58.4H72.8999L72.4999 59.1C66.9999 67.9 57.5999 73.1 47.2999 73.1C38.2999 73.1 29.8999 69.1 24.2999 62.1C24.8999 61.2 25.2999 60.2 25.2999 59C25.2999 56.1 22.9999 53.8 20.0999 53.8C17.1999 53.8 14.8999 56.1 14.8999 59C14.8999 61.9 17.1999 64.2 20.0999 64.2C20.6999 64.2 21.3999 64.1 21.8999 63.9C28.0999 71.7 37.3999 76.1 47.3999 76.1C58.4999 76.1 68.6999 70.6 74.6999 61.4H87.0999L87.4999 60.5C88.6999 57.6 89.5999 54.5 90.1999 51.4C92.5999 50.9 94.3999 48.8 94.3999 46.3C94.0999 43.3 91.6999 41 88.8999 41ZM19.7999 61.2C18.5999 61.2 17.5999 60.2 17.5999 59C17.5999 57.8 18.5999 56.8 19.7999 56.8C20.9999 56.8 21.9999 57.8 21.9999 59C21.9999 60.2 20.9999 61.2 19.7999 61.2ZM88.8999 48.4C87.6999 48.4 86.6999 47.4 86.6999 46.2C86.6999 45 87.6999 44 88.8999 44C90.0999 44 91.0999 45 91.0999 46.2C91.0999 47.4 90.0999 48.4 88.8999 48.4Z" fill="url(#paint2_linear)"/>
<path d="M69.8999 17.6V12.2L55.9999 5V0.9L54.7999 0.700001C52.2999 0.200001 49.6999 0 47.0999 0C29.4999 0 13.7999 10.5 6.99986 26.7L6.09985 28.8H21.1999L21.5999 28.1C23.4999 24.9 25.9999 22.2 28.8999 19.9L29.4999 19.4V12.3C31.3999 11.2 37.7999 8.6 47.9999 13.3L49.2999 10.6C35.4999 4.3 27.4999 10.1 27.1999 10.3L26.5999 10.8V18C23.8999 20.2 21.4999 22.8 19.5999 25.8H10.7999C17.3999 11.9 31.4999 3 47.0999 3C49.0999 3 50.9999 3.1 52.8999 3.4V6.7L66.8999 13.9V19L84.8999 31.8C83.3999 34.4 78.5999 41.2 67.2999 42.9L67.6999 45.9C70.5999 45.5 73.0999 44.7 75.1999 43.8C74.6999 45.7 73.9999 48 72.7999 49.7L53.4999 39.7C51.1999 38.5 48.3999 38.9 46.5999 40.7C45.3999 41.9 44.4999 43.5 44.0999 45.5L46.9999 46.1C47.2999 44.7 47.8999 43.6 48.6999 42.8C49.5999 41.9 50.9999 41.8 52.0999 42.4L55.1999 44C54.8999 48.3 51.2999 51.7 46.8999 51.7H45.3999V63.1C39.6999 62.7 34.4999 59.9 31.0999 55.3C29.4999 53.2 28.3999 50.9 27.7999 48.5C27.3999 46.8 27.0999 45.1 27.0999 43.4C27.0999 33.4 34.3999 25.1 44.1999 23.7C44.6999 26.1 46.7999 27.9 49.2999 27.9C52.1999 27.9 54.4999 25.6 54.4999 22.7C54.4999 19.8 52.1999 17.5 49.2999 17.5C47.0999 17.5 45.1999 18.8 44.4999 20.8C32.8999 22 24.0999 31.8 24.0999 43.5C24.0999 44.8 24.1999 46.2 24.3999 47.5H17.4999C17.2999 46.2 17.1999 44.8 17.1999 43.5C17.1999 40.5 17.8999 37.2 18.7999 34.4H15.5999C14.5999 37.5 14.2999 40.2 14.2999 43.5C14.2999 45.5 14.4999 47.4 14.7999 49.3L14.9999 50.5H25.1999C25.9999 52.9 27.1999 55.2 28.6999 57.2C33.0999 63 39.6999 66.3 46.9999 66.3C51.9999 66.3 56.9999 64.6 60.8999 61.6C61.5999 61.9 62.2999 62.1 63.1999 62.1C66.0999 62.1 68.3999 59.7 68.3999 56.9C68.3999 54 66.0999 51.7 63.1999 51.7C60.2999 51.7 57.9999 54.1 57.9999 56.9C57.9999 57.9 58.2999 58.8 58.6999 59.6C55.6999 61.8 52.1999 63.1 48.4999 63.3V54.8C53.2999 54.2 57.1999 50.5 58.0999 45.7L73.4999 53.7L74.2999 52.9C77.2999 49.8 78.2999 44.2 78.5999 42.4C85.5999 38.3 87.9999 32.5 88.0999 32.2L88.4999 31.1L69.8999 17.6ZM49.3999 20.4C50.5999 20.4 51.5999 21.4 51.5999 22.6C51.5999 23.8 50.5999 24.8 49.3999 24.8C48.1999 24.8 47.1999 23.8 47.1999 22.6C47.1999 21.4 48.1999 20.4 49.3999 20.4ZM63.1999 54.6C64.3999 54.6 65.3999 55.6 65.3999 56.8C65.3999 58 64.3999 59 63.1999 59C61.9999 59 60.9999 58 60.9999 56.8C60.9999 55.6 61.9999 54.6 63.1999 54.6Z" fill="url(#paint3_linear)"/>
<path d="M112.8 40.8H133.5V27.4H139.4V60H133.5V46.7H112.8V60H106.9V27.4H112.8V40.8Z" fill="url(#paint4_linear)"/>
<path d="M178.4 60H172.5V52H151.7V60H145.8V43.7C145.8 41.3 146.2 39.1 147 37.1C147.8 35.1 149 33.4001 150.4 31.9001C151.9 30.5001 153.6 29.3 155.6 28.5C157.6 27.7 159.8 27.3 162.1 27.3H175.4C175.8 27.3 176.2 27.4 176.6 27.5C177 27.6 177.3 27.9 177.6 28.1C177.9 28.4 178.1 28.7 178.2 29.1C178.3 29.5 178.4 29.9 178.4 30.3V60ZM151.7 46.1H172.5V33.4001H162.1C161.9 33.4001 161.5 33.4 161 33.5C160.4 33.6 159.7 33.7001 159 33.9001C158.2 34.1001 157.4 34.4001 156.6 34.9001C155.8 35.3001 155 35.9001 154.3 36.7001C153.6 37.5001 153 38.4 152.5 39.6C152 40.8 151.8 42.2001 151.8 43.8001V46.1H151.7Z" fill="url(#paint5_linear)"/>
<path d="M214.4 60H193.1C192.6 60 192 59.9001 191.3 59.8001C190.7 59.7001 190 59.5 189.4 59.2C188.8 58.9 188.2 58.6 187.6 58.1C187 57.6 186.5 57.1 186.1 56.5C185.7 55.9 185.3 55.2001 185.1 54.4001C184.8 53.6001 184.7 52.7 184.7 51.7V35.7001C184.7 35.2001 184.8 34.6001 184.9 33.9001C185 33.2001 185.2 32.6 185.5 32C185.8 31.4 186.1 30.8001 186.6 30.2001C187.1 29.6001 187.6 29.1001 188.2 28.7001C188.8 28.3001 189.5 27.9001 190.3 27.7001C191.1 27.4001 192 27.3 193 27.3H214.3V33.2001H193C192.2 33.2001 191.6 33.4 191.2 33.8C190.8 34.2 190.6 34.8 190.6 35.6V51.6C190.6 52.4 190.8 52.9001 191.2 53.4001C191.6 53.8001 192.2 54 193 54H214.3V60H214.4Z" fill="url(#paint6_linear)"/>
<path d="M225.9 60H220V27.4H225.9V60ZM254.1 60H245.7L232.4 46.7H228.2V40.7H232.4L245.7 27.4H254.1L237.4 43.7L254.1 60Z" fill="url(#paint7_linear)"/>
<path d="M277.2 46.4001H255.9V41.1001H277.2V46.4001Z" fill="url(#paint8_linear)"/>
<path d="M297 39.1L307 27.5H315.1L301.1 43.8L315 60H307L297 48.5L287.2 60H279.2L293 43.8L279 27.5H287L297 39.1Z" fill="url(#paint9_linear)"/>
<path d="M239.7 86.3C239.7 87 239.6 87.5 239.5 88.1C239.4 88.7 239.1 89.1 238.8 89.5C238.5 89.9 238.2 90.2 237.8 90.5C237.4 90.8 237.1 91 236.7 91.2C236.3 91.4 235.9 91.5 235.5 91.6C235.1 91.7 234.7 91.7 234.4 91.7H221.7V88.4H234.4C235 88.4 235.5 88.2 235.9 87.8C236.3 87.4 236.4 86.9 236.4 86.3C236.4 86 236.4 85.7 236.3 85.5C236.2 85.3 236.1 85 235.9 84.8C235.7 84.6 235.5 84.5 235.3 84.4C235 84.3 234.8 84.2 234.5 84.2H226.9C226.4 84.2 225.8 84.1 225.2 83.9C224.6 83.7 224 83.4 223.5 83C223 82.6 222.5 82 222.2 81.3C221.8 80.6 221.7 79.8 221.7 78.8C221.7 77.8 221.9 77 222.2 76.3C222.6 75.6 223 75.1 223.5 74.6C224 74.2 224.6 73.9 225.2 73.7C225.8 73.5 226.4 73.4 226.9 73.4H238V76.7H226.8C226.2 76.7 225.7 76.9 225.3 77.3C224.9 77.7 224.8 78.2 224.8 78.8C224.8 79.4 225 79.9 225.3 80.3C225.7 80.7 226.1 80.9 226.8 80.9H234.4C234.8 80.9 235.1 81 235.5 81C235.9 81.1 236.3 81.2 236.7 81.4C237.1 81.6 237.5 81.8 237.8 82.1C238.1 82.4 238.5 82.7 238.7 83.1C239 83.5 239.2 84 239.4 84.5C239.6 85 239.7 85.6 239.7 86.3Z" fill="url(#paint10_linear)"/>
<path d="M258.9 91.6H247C246.5 91.6 246 91.5 245.5 91.4C245 91.2 244.5 91 244 90.6C243.5 90.2 243.2 89.8 242.8 89.2C242.5 88.6 242.3 87.9 242.3 87V75.1C242.3 74.9 242.3 74.7 242.4 74.5C242.5 74.3 242.6 74.1 242.7 74C242.8 73.8 243 73.7 243.2 73.6C243.4 73.5 243.6 73.5 243.9 73.5H258.8V76.8H245.6V87C245.6 87.4 245.7 87.8 245.9 88C246.1 88.2 246.5 88.3 246.9 88.3H258.8V91.6H258.9ZM257.4 84.2H247V80.9H257.4V84.2Z" fill="url(#paint11_linear)"/>
<path d="M278.2 91.6H266.3C266 91.6 265.7 91.6 265.3 91.5C264.9 91.4 264.6 91.3 264.3 91.2C264 91.1 263.6 90.9 263.3 90.6C263 90.3 262.7 90.1 262.5 89.7C262.3 89.4 262.1 89 261.9 88.5C261.8 88 261.7 87.5 261.7 87V78.1C261.7 77.8 261.7 77.5 261.8 77.1C261.9 76.8 262 76.4 262.1 76.1C262.3 75.8 262.5 75.4 262.7 75.1C262.9 74.8 263.2 74.5 263.6 74.3C263.9 74.1 264.3 73.9 264.8 73.7C265.3 73.5 265.8 73.5 266.3 73.5H278.2V76.8H266.3C265.9 76.8 265.5 76.9 265.3 77.1C265.1 77.3 265 77.7 265 78.1V87C265 87.4 265.1 87.8 265.3 88C265.5 88.2 265.9 88.3 266.3 88.3H278.2V91.6Z" fill="url(#paint12_linear)"/>
<path d="M299.2 90C299.2 90.2 299.2 90.5 299.1 90.7C299 90.9 298.9 91.1 298.7 91.2C298.5 91.3 298.4 91.5 298.2 91.5C298 91.6 297.8 91.6 297.6 91.6H290.2C289.5 91.6 288.8 91.5 288.1 91.4C287.4 91.3 286.7 91 286 90.7C285.3 90.4 284.7 90 284.1 89.5C283.5 89 283 88.4 282.5 87.8C282.1 87.1 281.7 86.4 281.5 85.5C281.2 84.6 281.1 83.7 281.1 82.6V73.5H284.4V82.6C284.4 83.5 284.5 84.3 284.8 85C285.1 85.7 285.4 86.2 285.8 86.6C286.2 87 286.6 87.4 287.1 87.6C287.6 87.8 288 88 288.5 88.1C288.9 88.2 289.3 88.3 289.6 88.3C289.9 88.3 290.1 88.3 290.2 88.3H296V73.4H299.3V90H299.2Z" fill="url(#paint13_linear)"/>
<path d="M321.2 79.5C321.2 80.3 321.1 80.9 320.9 81.5C320.7 82.1 320.5 82.6 320.1 83.1C319.8 83.6 319.4 83.9 319 84.3C318.6 84.6 318.2 84.9 317.7 85.1C317.2 85.3 316.8 85.5 316.3 85.6C315.8 85.7 315.4 85.7 315 85.7L321.9 91.6H316.8L309.9 85.7H307.5V82.4H315C315.4 82.4 315.8 82.3 316.1 82.1C316.4 82 316.7 81.8 317 81.5C317.2 81.3 317.4 81 317.6 80.6C317.7 80.3 317.8 79.9 317.8 79.5V77.4C317.8 77.2 317.8 77.1 317.7 77C317.6 76.9 317.6 76.8 317.5 76.8C317.4 76.8 317.4 76.7 317.3 76.7C317.2 76.7 317.1 76.7 317.1 76.7H306.2V91.6H303V75.1C303 74.9 303 74.7 303.1 74.5C303.2 74.3 303.3 74.1 303.4 74C303.5 73.8 303.7 73.7 303.9 73.6C304.1 73.5 304.3 73.5 304.6 73.5H317.1C317.8 73.5 318.5 73.6 319 73.9C319.5 74.2 319.9 74.5 320.2 74.9C320.5 75.3 320.7 75.7 320.9 76.2C321 76.7 321.1 77.1 321.1 77.5V79.5H321.2Z" fill="url(#paint14_linear)"/>
<path d="M327.8 91.6H324.5V73.4H327.8V91.6Z" fill="url(#paint15_linear)"/>
<path d="M348.1 76.7H340.8V91.6H337.5V76.7H330.2V73.4H348V76.7H348.1Z" fill="url(#paint16_linear)"/>
<path d="M367.8 79.5C367.8 80.3 367.7 80.9 367.5 81.5C367.3 82.1 367.1 82.6 366.7 83.1C366.4 83.6 366 83.9 365.6 84.3C365.2 84.6 364.7 84.9 364.3 85.1C363.9 85.3 363.4 85.5 362.9 85.6C362.4 85.7 362 85.7 361.6 85.7H360.3V91.7H357V85.7H355.7C355.3 85.7 354.9 85.7 354.4 85.6C353.9 85.5 353.5 85.4 353 85.1C352.5 84.9 352.1 84.6 351.7 84.3C351.3 84 350.9 83.6 350.6 83.1C350.3 82.6 350 82.1 349.8 81.5C349.6 80.9 349.5 80.2 349.5 79.5V73.4H352.8V79.5C352.8 79.9 352.9 80.3 353 80.7C353.1 81 353.3 81.3 353.6 81.6C353.8 81.8 354.1 82 354.5 82.2C354.9 82.3 355.2 82.4 355.7 82.4H361.6C361.9 82.3 362.2 82.3 362.6 82.2C363 82.1 363.2 82 363.5 81.8C363.8 81.6 364 81.3 364.2 81C364.4 80.7 364.5 80.2 364.5 79.6V73.5H367.8V79.5Z" fill="url(#paint17_linear)"/>
<path d="M112.4 106.8C112.4 107.3 112.3 107.8 112.2 108.2C112.1 108.6 111.9 109 111.7 109.3C111.5 109.6 111.2 109.9 110.9 110.1C110.6 110.3 110.3 110.5 110 110.6C109.7 110.7 109.4 110.8 109.1 110.9C108.8 111 108.5 111 108.2 111H103V108.7H108.1C108.4 108.7 108.7 108.6 108.9 108.5C109.1 108.4 109.3 108.3 109.5 108.1C109.7 107.9 109.8 107.7 109.9 107.5C110 107.3 110 107 110 106.7V105.7C110 105.4 109.9 105.2 109.8 104.9C109.7 104.7 109.6 104.5 109.4 104.3C109.2 104.1 109 104 108.8 103.9C108.6 103.8 108.3 103.8 108 103.8H103C102.7 103.8 102.5 103.9 102.3 104C102.1 104.2 102.1 104.4 102.1 104.7V114.1H99.8V104.7C99.8 104.1 99.9001 103.6 100.1 103.2C100.3 102.8 100.6 102.5 100.9 102.2C101.2 101.9 101.6 101.8 101.9 101.7C102.3 101.6 102.6 101.5 102.9 101.5H108C108.5 101.5 109 101.6 109.4 101.7C109.8 101.8 110.2 102 110.5 102.2C110.8 102.4 111.1 102.7 111.3 103C111.5 103.3 111.7 103.6 111.8 103.9C111.9 104.2 112 104.5 112.1 104.8C112.2 105.1 112.2 105.4 112.2 105.7V106.8H112.4Z" fill="url(#paint18_linear)"/>
<path d="M122.3 106.9H117.2C116.9 106.9 116.7 107 116.5 107.1C116.3 107.3 116.3 107.5 116.3 107.8V114.1H114V107.8C114 107.4 114 107.1 114.1 106.7C114.2 106.4 114.3 106.1 114.5 105.9C114.7 105.7 114.9 105.5 115.1 105.3C115.3 105.1 115.5 105 115.8 104.9C116 104.8 116.3 104.7 116.5 104.7C116.7 104.6 117 104.6 117.2 104.6H122.3V106.9Z" fill="url(#paint19_linear)"/>
<path d="M134 110.9C134 111.3 134 111.6 133.9 112C133.8 112.3 133.7 112.6 133.5 112.8C133.3 113 133.1 113.2 132.9 113.4C132.7 113.6 132.5 113.7 132.2 113.8C132 113.9 131.7 114 131.5 114C131.3 114.1 131 114.1 130.8 114.1H126.7C126.4 114.1 126 114 125.7 113.9C125.3 113.8 125 113.6 124.7 113.4C124.4 113.1 124.1 112.8 123.9 112.4C123.7 112 123.6 111.5 123.6 110.9V107.8C123.6 107.2 123.7 106.7 123.9 106.3C124.1 105.9 124.4 105.6 124.7 105.3C125 105 125.4 104.9 125.7 104.8C126.1 104.7 126.4 104.6 126.7 104.6H130.8C131.4 104.6 131.9 104.7 132.3 104.9C132.7 105.1 133 105.4 133.3 105.7C133.6 106 133.7 106.4 133.8 106.7C133.9 107.1 134 107.4 134 107.7V110.9ZM131.8 107.8C131.8 107.5 131.7 107.3 131.6 107.1C131.5 106.9 131.2 106.9 130.9 106.9H126.8C126.5 106.9 126.3 107 126.1 107.1C125.9 107.3 125.9 107.5 125.9 107.8V110.9C125.9 111.2 126 111.4 126.1 111.6C126.3 111.8 126.5 111.8 126.8 111.8H130.9C131.2 111.8 131.4 111.7 131.6 111.6C131.8 111.4 131.8 111.2 131.8 110.9V107.8Z" fill="url(#paint20_linear)"/>
<path d="M144.5 106.9H140.5V114.1H138.2V106.9H135.2V104.6H138.2V101.5H140.5V104.6H144.5V106.9Z" fill="url(#paint21_linear)"/>
<path d="M156.2 107.7C156.2 108 156.1 108.4 156 108.7C155.9 109.1 155.7 109.4 155.5 109.7C155.3 110 154.9 110.3 154.5 110.5C154.1 110.7 153.6 110.8 153 110.8H148.9V108.6H153C153.3 108.6 153.5 108.5 153.7 108.3C153.9 108.1 154 107.9 154 107.6C154 107.3 153.9 107.1 153.7 106.9C153.5 106.7 153.3 106.6 153 106.6H148.9C148.6 106.6 148.4 106.7 148.2 106.9C148 107.1 147.9 107.3 147.9 107.6V110.8C147.9 111.1 148 111.3 148.2 111.5C148.4 111.7 148.6 111.8 148.9 111.8H153V114H148.9C148.6 114 148.2 113.9 147.9 113.8C147.5 113.7 147.2 113.5 146.9 113.3C146.6 113.1 146.3 112.7 146.1 112.3C145.9 111.9 145.8 111.4 145.8 110.8V107.6C145.8 107.3 145.9 106.9 146 106.6C146.1 106.2 146.3 105.9 146.5 105.6C146.7 105.3 147.1 105 147.5 104.8C147.9 104.6 148.4 104.5 149 104.5H153.1C153.4 104.5 153.8 104.6 154.1 104.7C154.4 104.8 154.8 105 155.1 105.2C155.4 105.4 155.7 105.8 155.9 106.2C156.1 106.7 156.2 107.2 156.2 107.7Z" fill="url(#paint22_linear)"/>
<path d="M166.9 114.1H160.7C160.4 114.1 160 114 159.7 113.9C159.3 113.8 159 113.6 158.7 113.4C158.4 113.1 158.1 112.8 157.9 112.4C157.7 112 157.6 111.5 157.6 110.9V107.8C157.6 107.6 157.6 107.4 157.7 107.1C157.7 106.9 157.8 106.6 157.9 106.4C158 106.2 158.1 105.9 158.3 105.7C158.5 105.5 158.7 105.3 158.9 105.1C159.1 104.9 159.4 104.8 159.7 104.7C160 104.6 160.4 104.6 160.7 104.6H166.9V106.9H160.7C160.4 106.9 160.2 107 160 107.1C159.8 107.3 159.8 107.5 159.8 107.8V110.9C159.8 111.2 159.9 111.4 160 111.6C160.2 111.8 160.4 111.8 160.7 111.8H166.9V114.1Z" fill="url(#paint23_linear)"/>
<path d="M177.3 106.9H173.3V114.1H171V106.9H168V104.6H171V101.5H173.3V104.6H177.3V106.9Z" fill="url(#paint24_linear)"/>
<path d="M181.1 102.7H178.8V100.6H181.1V102.7ZM181.1 114.1H178.8V104.6H181.1V114.1Z" fill="url(#paint25_linear)"/>
<path d="M193.8 114.1H191.5V108.8C191.5 108.5 191.4 108.2 191.3 108C191.2 107.8 191.1 107.6 190.9 107.4C190.7 107.2 190.5 107.1 190.3 107C190.1 106.9 189.8 106.9 189.5 106.9H185.5V114.1H183.2V105.8C183.2 105.6 183.2 105.5 183.3 105.4C183.4 105.3 183.4 105.1 183.5 105C183.6 104.9 183.7 104.8 183.9 104.8C184 104.7 184.2 104.7 184.3 104.7H189.4C189.7 104.7 190 104.7 190.3 104.8C190.6 104.9 190.9 105 191.2 105.1C191.5 105.2 191.8 105.4 192.1 105.6C192.4 105.8 192.6 106.1 192.9 106.4C193.1 106.7 193.3 107.1 193.4 107.5C193.5 107.9 193.6 108.4 193.6 108.9V114.1H193.8Z" fill="url(#paint26_linear)"/>
<path d="M206.1 115C206.1 115.4 206.1 115.7 206 116.1C205.9 116.4 205.8 116.7 205.6 116.9C205.4 117.1 205.2 117.3 205 117.5C204.8 117.7 204.6 117.8 204.3 117.9C204 118 203.8 118.1 203.6 118.1C203.4 118.1 203.1 118.2 202.9 118.2H198.8V115.9H202.9C203.2 115.9 203.4 115.8 203.6 115.7C203.8 115.5 203.8 115.3 203.8 115V107.8C203.8 107.5 203.7 107.3 203.6 107.1C203.4 106.9 203.2 106.9 202.9 106.9H198.8C198.5 106.9 198.3 107 198.1 107.2C197.9 107.4 197.9 107.6 197.9 107.9V111C197.9 111.3 198 111.5 198.1 111.7C198.3 111.9 198.5 111.9 198.8 111.9H202.9V114.2H198.8C198.6 114.2 198.4 114.2 198.1 114.1C197.9 114.1 197.6 114 197.4 113.9C197.2 113.8 196.9 113.7 196.7 113.5C196.5 113.3 196.3 113.1 196.1 112.9C195.9 112.7 195.8 112.4 195.7 112.1C195.6 111.8 195.6 111.4 195.6 111V107.9C195.6 107.7 195.6 107.5 195.7 107.2C195.7 107 195.8 106.7 195.9 106.5C196 106.3 196.1 106 196.3 105.8C196.5 105.6 196.7 105.4 196.9 105.2C197.1 105 197.4 104.9 197.7 104.8C198 104.7 198.4 104.7 198.7 104.7H202.8C203 104.7 203.2 104.7 203.5 104.8C203.7 104.8 204 104.9 204.2 105C204.4 105.1 204.7 105.2 204.9 105.4C205.1 105.6 205.3 105.8 205.5 106C205.7 106.2 205.8 106.5 205.9 106.8C206 107.1 206 107.5 206 107.9V115H206.1Z" fill="url(#paint27_linear)"/>
<path d="M222.5 106.9H218.5V114.1H216.2V106.9H213.2V104.6H216.2V101.5H218.5V104.6H222.5V106.9Z" fill="url(#paint28_linear)"/>
<path d="M226.3 114.1H224V100.6H226.3V114.1ZM234.5 114.1H232.2V107.8C232.2 107.5 232.1 107.3 232 107.1C231.8 106.9 231.6 106.9 231.3 106.9H227.2V104.6H231.3C231.5 104.6 231.7 104.6 232 104.7C232.2 104.7 232.5 104.8 232.7 104.9C232.9 105 233.2 105.1 233.4 105.3C233.6 105.5 233.8 105.7 234 105.9C234.2 106.1 234.3 106.4 234.4 106.7C234.5 107 234.5 107.4 234.5 107.8V114.1Z" fill="url(#paint29_linear)"/>
<path d="M246.7 107.7C246.7 108 246.6 108.4 246.5 108.7C246.4 109.1 246.2 109.4 246 109.7C245.8 110 245.4 110.3 245 110.5C244.6 110.7 244.1 110.8 243.5 110.8H239.4V108.6H243.5C243.8 108.6 244 108.5 244.2 108.3C244.4 108.1 244.5 107.9 244.5 107.6C244.5 107.3 244.4 107.1 244.2 106.9C244 106.7 243.8 106.6 243.5 106.6H239.4C239.1 106.6 238.9 106.7 238.7 106.9C238.5 107.1 238.4 107.3 238.4 107.6V110.8C238.4 111.1 238.5 111.3 238.7 111.5C238.9 111.7 239.1 111.8 239.4 111.8H243.5V114H239.4C239.1 114 238.7 113.9 238.4 113.8C238 113.7 237.7 113.5 237.4 113.3C237.1 113.1 236.8 112.7 236.6 112.3C236.4 111.9 236.3 111.4 236.3 110.8V107.6C236.3 107.3 236.4 106.9 236.5 106.6C236.6 106.2 236.8 105.9 237 105.6C237.2 105.3 237.6 105 238 104.8C238.4 104.6 238.9 104.5 239.5 104.5H243.6C243.9 104.5 244.3 104.6 244.6 104.7C244.9 104.8 245.3 105 245.6 105.2C245.9 105.4 246.2 105.8 246.4 106.2C246.6 106.7 246.7 107.2 246.7 107.7Z" fill="url(#paint30_linear)"/>
<path d="M265.6 114.1H257.4C257.2 114.1 257 114.1 256.7 114C256.5 114 256.2 113.9 256 113.8C255.8 113.7 255.5 113.6 255.3 113.4C255.1 113.2 254.9 113 254.7 112.8C254.5 112.6 254.4 112.3 254.3 112C254.2 111.7 254.2 111.3 254.2 110.9V104.7C254.2 104.5 254.2 104.3 254.3 104C254.4 103.7 254.4 103.5 254.5 103.3C254.6 103.1 254.7 102.8 254.9 102.6C255.1 102.4 255.3 102.2 255.5 102C255.7 101.8 256 101.7 256.3 101.6C256.6 101.5 257 101.5 257.4 101.5H265.6V103.8H257.4C257.1 103.8 256.9 103.9 256.7 104C256.5 104.2 256.5 104.4 256.5 104.7V110.8C256.5 111.1 256.6 111.3 256.7 111.5C256.9 111.7 257.1 111.7 257.4 111.7H265.6V114.1Z" fill="url(#paint31_linear)"/>
<path d="M274.6 114.1H270.5C270.2 114.1 269.8 114 269.5 113.9C269.1 113.8 268.8 113.6 268.5 113.4C268.2 113.1 267.9 112.8 267.7 112.4C267.5 112 267.4 111.5 267.4 110.9V104.6H269.7V110.9C269.7 111.2 269.8 111.4 269.9 111.6C270.1 111.8 270.3 111.8 270.6 111.8H274.7V114.1H274.6ZM277.8 115C277.8 115.4 277.8 115.7 277.7 116.1C277.6 116.4 277.5 116.7 277.3 116.9C277.1 117.1 276.9 117.3 276.7 117.5C276.5 117.7 276.3 117.8 276 117.9C275.7 118 275.5 118.1 275.3 118.1C275.1 118.1 274.8 118.2 274.6 118.2H270.5V115.9H274.6C274.9 115.9 275.1 115.8 275.3 115.7C275.5 115.5 275.5 115.3 275.5 115V104.6H277.8V115Z" fill="url(#paint32_linear)"/>
<path d="M290.4 110.9C290.4 111.1 290.4 111.3 290.3 111.6C290.3 111.8 290.2 112.1 290.1 112.3C290 112.5 289.9 112.8 289.7 113C289.5 113.2 289.3 113.4 289.1 113.6C288.9 113.8 288.6 113.9 288.3 114C288 114.1 287.6 114.1 287.2 114.1H283.1C282.9 114.1 282.7 114.1 282.4 114C282.2 114 281.9 113.9 281.7 113.8C281.5 113.7 281.2 113.6 281 113.4C280.8 113.2 280.6 113 280.4 112.8C280.2 112.6 280.1 112.3 280 112C279.9 111.7 279.9 111.3 279.9 110.9V100.6H282.2V110.9C282.2 111.2 282.3 111.4 282.5 111.6C282.7 111.8 282.9 111.8 283.2 111.8H287.3C287.6 111.8 287.8 111.7 288 111.5C288.2 111.3 288.2 111.1 288.2 110.8V107.7C288.2 107.4 288.1 107.2 287.9 107C287.7 106.8 287.5 106.8 287.2 106.8H283.1V104.5H287.2C287.4 104.5 287.6 104.5 287.9 104.6C288.1 104.6 288.4 104.7 288.6 104.8C288.8 104.9 289.1 105 289.3 105.2C289.5 105.4 289.7 105.6 289.9 105.8C290.1 106 290.2 106.3 290.3 106.6C290.4 106.9 290.4 107.3 290.4 107.7V110.9Z" fill="url(#paint33_linear)"/>
<path d="M302.6 107.7C302.6 108 302.5 108.4 302.4 108.7C302.3 109.1 302.1 109.4 301.9 109.7C301.7 110 301.3 110.3 300.9 110.5C300.5 110.7 300 110.8 299.4 110.8H295.3V108.6H299.4C299.7 108.6 299.9 108.5 300.1 108.3C300.3 108.1 300.4 107.9 300.4 107.6C300.4 107.3 300.3 107.1 300.1 106.9C299.9 106.7 299.7 106.6 299.4 106.6H295.3C295 106.6 294.8 106.7 294.6 106.9C294.4 107.1 294.3 107.3 294.3 107.6V110.8C294.3 111.1 294.4 111.3 294.6 111.5C294.8 111.7 295 111.8 295.3 111.8H299.4V114H295.3C295 114 294.6 113.9 294.3 113.8C293.9 113.7 293.6 113.5 293.3 113.3C293 113.1 292.7 112.7 292.5 112.3C292.3 111.9 292.2 111.4 292.2 110.8V107.6C292.2 107.3 292.3 106.9 292.4 106.6C292.5 106.2 292.7 105.9 292.9 105.6C293.1 105.3 293.5 105 293.9 104.8C294.3 104.6 294.8 104.5 295.4 104.5H299.5C299.8 104.5 300.2 104.6 300.5 104.7C300.8 104.8 301.2 105 301.5 105.2C301.8 105.4 302.1 105.8 302.3 106.2C302.5 106.7 302.6 107.2 302.6 107.7Z" fill="url(#paint34_linear)"/>
<path d="M312.4 106.9H307.3C307 106.9 306.8 107 306.6 107.1C306.4 107.3 306.4 107.5 306.4 107.8V114.1H304V107.8C304 107.4 304 107.1 304.1 106.7C304.2 106.4 304.3 106.1 304.5 105.9C304.7 105.7 304.9 105.5 305.1 105.3C305.3 105.1 305.5 105 305.8 104.9C306 104.8 306.3 104.7 306.5 104.7C306.7 104.6 307 104.6 307.2 104.6H312.3V106.9H312.4Z" fill="url(#paint35_linear)"/>
<path d="M323 110.9C323 111.3 323 111.6 322.9 112C322.8 112.3 322.7 112.6 322.5 112.8C322.3 113 322.1 113.2 321.9 113.4C321.7 113.6 321.5 113.7 321.2 113.8C321 113.9 320.7 114 320.5 114C320.3 114.1 320 114.1 319.8 114.1H313.6V111.8H319.7C320 111.8 320.2 111.7 320.4 111.6C320.6 111.4 320.6 111.2 320.6 110.9C320.6 110.3 320.3 110 319.7 110H316.2C315.7 110 315.3 109.9 314.9 109.7C314.6 109.5 314.3 109.3 314 109C313.8 108.7 313.6 108.5 313.5 108.2C313.4 107.9 313.4 107.6 313.4 107.4C313.4 106.9 313.5 106.5 313.7 106.1C313.9 105.8 314.1 105.5 314.4 105.3C314.7 105.1 315 104.9 315.3 104.8C315.6 104.7 315.9 104.7 316.2 104.7H321.8V107H316.2C316.1 107 316 107 315.9 107C315.8 107 315.8 107.1 315.8 107.1L315.7 107.2C315.7 107.3 315.7 107.3 315.7 107.3C315.7 107.4 315.7 107.5 315.8 107.5C315.9 107.5 315.9 107.6 315.9 107.6H316C316.1 107.6 316.1 107.6 316.2 107.6H319.7C320.3 107.6 320.8 107.7 321.2 107.9C321.6 108.1 321.9 108.4 322.2 108.7C322.5 109 322.6 109.4 322.7 109.7C323 110.2 323 110.5 323 110.9Z" fill="url(#paint36_linear)"/>
<path d="M335 110.9C335 111.3 335 111.6 334.9 112C334.8 112.3 334.7 112.6 334.5 112.8C334.3 113 334.1 113.2 333.9 113.4C333.7 113.6 333.5 113.7 333.2 113.8C333 113.9 332.7 114 332.5 114C332.3 114.1 332 114.1 331.8 114.1H327.7V111.8H331.8C332.1 111.8 332.3 111.7 332.5 111.6C332.7 111.4 332.7 111.2 332.7 110.9V107.8C332.7 107.5 332.6 107.3 332.5 107.1C332.3 106.9 332.1 106.9 331.8 106.9H327.7C327.4 106.9 327.2 107 327 107.1C326.8 107.3 326.8 107.5 326.8 107.8V117H324.5V107.8C324.5 107.4 324.5 107.1 324.6 106.7C324.7 106.4 324.8 106.1 325 105.9C325.2 105.7 325.4 105.5 325.6 105.3C325.8 105.1 326 105 326.3 104.9C326.5 104.8 326.8 104.7 327 104.7C327.2 104.6 327.5 104.6 327.7 104.6H331.8C332.2 104.6 332.5 104.6 332.9 104.7C333.2 104.8 333.5 104.9 333.7 105.1C333.9 105.3 334.1 105.5 334.3 105.7C334.5 105.9 334.6 106.1 334.7 106.4C334.8 106.6 334.9 106.9 334.9 107.1C334.9 107.3 335 107.6 335 107.8V110.9Z" fill="url(#paint37_linear)"/>
<path d="M346.7 110.9C346.7 111.2 346.6 111.6 346.5 111.9C346.4 112.3 346.2 112.6 346 112.9C345.8 113.2 345.4 113.5 345 113.7C344.6 113.9 344.1 114 343.5 114H339.4C339.1 114 338.7 113.9 338.4 113.8C338.1 113.7 337.7 113.5 337.4 113.3C337.1 113.1 336.8 112.7 336.6 112.3C336.4 111.9 336.3 111.4 336.3 110.8C336.3 110.5 336.4 110.1 336.5 109.8C336.6 109.4 336.8 109.1 337 108.8C337.2 108.5 337.6 108.2 338 108C338.4 107.8 338.9 107.7 339.5 107.7H343.6V109.9H339.5C339.2 109.9 339 110 338.8 110.2C338.6 110.4 338.5 110.6 338.5 110.9C338.5 111.2 338.6 111.4 338.8 111.6C339 111.8 339.2 111.9 339.5 111.9H343.6C343.9 111.9 344.1 111.8 344.3 111.6C344.5 111.4 344.6 111.2 344.6 110.9V107.7C344.6 107.4 344.5 107.2 344.3 107C344.1 106.8 343.9 106.7 343.6 106.7H338.6V104.5H343.6C343.9 104.5 344.3 104.6 344.6 104.7C344.9 104.8 345.3 105 345.6 105.2C345.9 105.4 346.2 105.8 346.4 106.2C346.6 106.6 346.7 107.1 346.7 107.7V110.9Z" fill="url(#paint38_linear)"/>
<path d="M357.8 114.1H351.6C351.3 114.1 350.9 114 350.6 113.9C350.2 113.8 349.9 113.6 349.6 113.4C349.3 113.1 349 112.8 348.8 112.4C348.6 112 348.5 111.5 348.5 110.9V107.8C348.5 107.6 348.5 107.4 348.6 107.1C348.6 106.9 348.7 106.6 348.8 106.4C348.9 106.2 349 105.9 349.2 105.7C349.4 105.5 349.6 105.3 349.8 105.1C350 104.9 350.3 104.8 350.6 104.7C350.9 104.6 351.3 104.6 351.6 104.6H357.8V106.9H351.6C351.3 106.9 351.1 107 350.9 107.1C350.7 107.3 350.7 107.5 350.7 107.8V110.9C350.7 111.2 350.8 111.4 350.9 111.6C351.1 111.8 351.3 111.8 351.6 111.8H357.8V114.1Z" fill="url(#paint39_linear)"/>
<path d="M369.8 107.7C369.8 108 369.7 108.4 369.6 108.7C369.5 109.1 369.3 109.4 369.1 109.7C368.9 110 368.5 110.3 368.1 110.5C367.7 110.7 367.2 110.8 366.6 110.8H362.5V108.6H366.6C366.9 108.6 367.1 108.5 367.3 108.3C367.5 108.1 367.6 107.9 367.6 107.6C367.6 107.3 367.5 107.1 367.3 106.9C367.1 106.7 366.9 106.6 366.6 106.6H362.5C362.2 106.6 362 106.7 361.8 106.9C361.6 107.1 361.5 107.3 361.5 107.6V110.8C361.5 111.1 361.6 111.3 361.8 111.5C362 111.7 362.2 111.8 362.5 111.8H366.6V114H362.5C362.2 114 361.8 113.9 361.5 113.8C361.1 113.7 360.8 113.5 360.5 113.3C360.2 113.1 359.9 112.7 359.7 112.3C359.5 111.9 359.4 111.4 359.4 110.8V107.6C359.4 107.3 359.5 106.9 359.6 106.6C359.7 106.2 359.9 105.9 360.1 105.6C360.3 105.3 360.7 105 361.1 104.8C361.5 104.6 362 104.5 362.6 104.5H366.7C367 104.5 367.4 104.6 367.7 104.7C368 104.8 368.4 105 368.7 105.2C369 105.4 369.3 105.8 369.5 106.2C369.7 106.7 369.8 107.2 369.8 107.7Z" fill="url(#paint40_linear)"/>
<defs>
<linearGradient id="paint0_linear" x1="40.02" y1="32.0999" x2="40.02" y2="52.3599" gradientUnits="userSpaceOnUse">
<stop stop-color="#237BBF"/>
<stop offset="1" stop-color="#2E63AF"/>
</linearGradient>
<linearGradient id="paint1_linear" x1="42.965" y1="29.9899" x2="42.965" y2="87.0299" gradientUnits="userSpaceOnUse">
<stop stop-color="#247DC1"/>
<stop offset="1" stop-color="#2C3995"/>
</linearGradient>
<linearGradient id="paint2_linear" x1="54.3349" y1="40.9599" x2="54.3349" y2="76.0899" gradientUnits="userSpaceOnUse">
<stop stop-color="#2A6CB5"/>
<stop offset="1" stop-color="#2C3995"/>
</linearGradient>
<linearGradient id="paint3_linear" x1="47.3749" y1="0.0299" x2="47.3749" y2="66.2499" gradientUnits="userSpaceOnUse">
<stop stop-color="#28A6DE"/>
<stop offset="0.6124" stop-color="#2B70B9"/>
<stop offset="1" stop-color="#2D52A4"/>
</linearGradient>
<linearGradient id="paint4_linear" x1="123.199" y1="27.443" x2="123.199" y2="60.0299" gradientUnits="userSpaceOnUse">
<stop stop-color="#2865B0"/>
<stop offset="1" stop-color="#2865B0"/>
</linearGradient>
<linearGradient id="paint5_linear" x1="162.07" y1="27.443" x2="162.07" y2="60.0299" gradientUnits="userSpaceOnUse">
<stop stop-color="#2865B0"/>
<stop offset="1" stop-color="#2865B0"/>
</linearGradient>
<linearGradient id="paint6_linear" x1="199.599" y1="27.443" x2="199.599" y2="60.0299" gradientUnits="userSpaceOnUse">
<stop stop-color="#2865B0"/>
<stop offset="1" stop-color="#2865B0"/>
</linearGradient>
<linearGradient id="paint7_linear" x1="237.095" y1="27.443" x2="237.095" y2="60.0299" gradientUnits="userSpaceOnUse">
<stop stop-color="#2865B0"/>
<stop offset="1" stop-color="#2865B0"/>
</linearGradient>
<linearGradient id="paint8_linear" x1="266.512" y1="41.0779" x2="266.512" y2="46.3952" gradientUnits="userSpaceOnUse">
<stop stop-color="#2865B0"/>
<stop offset="1" stop-color="#2865B0"/>
</linearGradient>
<linearGradient id="paint9_linear" x1="297.066" y1="27.443" x2="297.066" y2="60.0299" gradientUnits="userSpaceOnUse">
<stop stop-color="#2865B0"/>
<stop offset="1" stop-color="#2865B0"/>
</linearGradient>
<linearGradient id="paint10_linear" x1="230.59" y1="73.4361" x2="230.59" y2="91.6256" gradientUnits="userSpaceOnUse">
<stop stop-color="#2866B1"/>
<stop offset="1" stop-color="#2C3995"/>
</linearGradient>
<linearGradient id="paint11_linear" x1="250.6" y1="73.4361" x2="250.6" y2="91.6256" gradientUnits="userSpaceOnUse">
<stop stop-color="#2866B1"/>
<stop offset="1" stop-color="#2C3995"/>
</linearGradient>
<linearGradient id="paint12_linear" x1="269.951" y1="73.4361" x2="269.951" y2="91.6256" gradientUnits="userSpaceOnUse">
<stop stop-color="#2866B1"/>
<stop offset="1" stop-color="#2C3995"/>
</linearGradient>
<linearGradient id="paint13_linear" x1="290.062" y1="73.4361" x2="290.062" y2="91.6256" gradientUnits="userSpaceOnUse">
<stop stop-color="#2866B1"/>
<stop offset="1" stop-color="#2C3995"/>
</linearGradient>
<linearGradient id="paint14_linear" x1="312.469" y1="73.4361" x2="312.469" y2="91.6256" gradientUnits="userSpaceOnUse">
<stop stop-color="#2866B1"/>
<stop offset="1" stop-color="#2C3995"/>
</linearGradient>
<linearGradient id="paint15_linear" x1="326.149" y1="73.4361" x2="326.149" y2="91.6256" gradientUnits="userSpaceOnUse">
<stop stop-color="#2866B1"/>
<stop offset="1" stop-color="#2C3995"/>
</linearGradient>
<linearGradient id="paint16_linear" x1="339.171" y1="73.4361" x2="339.171" y2="91.6256" gradientUnits="userSpaceOnUse">
<stop stop-color="#2866B1"/>
<stop offset="1" stop-color="#2C3995"/>
</linearGradient>
<linearGradient id="paint17_linear" x1="358.749" y1="73.4361" x2="358.749" y2="91.6256" gradientUnits="userSpaceOnUse">
<stop stop-color="#2866B1"/>
<stop offset="1" stop-color="#2C3995"/>
</linearGradient>
<linearGradient id="paint18_linear" x1="106.085" y1="101.511" x2="106.085" y2="114.059" gradientUnits="userSpaceOnUse">
<stop stop-color="#2C3995"/>
<stop offset="1" stop-color="#2C3995"/>
</linearGradient>
<linearGradient id="paint19_linear" x1="118.114" y1="104.6" x2="118.114" y2="114.059" gradientUnits="userSpaceOnUse">
<stop stop-color="#2C3995"/>
<stop offset="1" stop-color="#2C3995"/>
</linearGradient>
<linearGradient id="paint20_linear" x1="128.79" y1="104.6" x2="128.79" y2="114.059" gradientUnits="userSpaceOnUse">
<stop stop-color="#2C3995"/>
<stop offset="1" stop-color="#2C3995"/>
</linearGradient>
<linearGradient id="paint21_linear" x1="139.909" y1="101.511" x2="139.909" y2="114.059" gradientUnits="userSpaceOnUse">
<stop stop-color="#2C3995"/>
<stop offset="1" stop-color="#2C3995"/>
</linearGradient>
<linearGradient id="paint22_linear" x1="150.979" y1="104.6" x2="150.979" y2="114.059" gradientUnits="userSpaceOnUse">
<stop stop-color="#2C3995"/>
<stop offset="1" stop-color="#2C3995"/>
</linearGradient>
<linearGradient id="paint23_linear" x1="162.181" y1="104.6" x2="162.181" y2="114.059" gradientUnits="userSpaceOnUse">
<stop stop-color="#2C3995"/>
<stop offset="1" stop-color="#2C3995"/>
</linearGradient>
<linearGradient id="paint24_linear" x1="172.726" y1="101.511" x2="172.726" y2="114.059" gradientUnits="userSpaceOnUse">
<stop stop-color="#2C3995"/>
<stop offset="1" stop-color="#2C3995"/>
</linearGradient>
<linearGradient id="paint25_linear" x1="180.012" y1="100.6" x2="180.012" y2="114.059" gradientUnits="userSpaceOnUse">
<stop stop-color="#2C3995"/>
<stop offset="1" stop-color="#2C3995"/>
</linearGradient>
<linearGradient id="paint26_linear" x1="188.571" y1="104.6" x2="188.571" y2="114.059" gradientUnits="userSpaceOnUse">
<stop stop-color="#2C3995"/>
<stop offset="1" stop-color="#2C3995"/>
</linearGradient>
<linearGradient id="paint27_linear" x1="200.858" y1="104.6" x2="200.858" y2="118.165" gradientUnits="userSpaceOnUse">
<stop stop-color="#2C3995"/>
<stop offset="1" stop-color="#2C3995"/>
</linearGradient>
<linearGradient id="paint28_linear" x1="217.857" y1="101.511" x2="217.857" y2="114.059" gradientUnits="userSpaceOnUse">
<stop stop-color="#2C3995"/>
<stop offset="1" stop-color="#2C3995"/>
</linearGradient>
<linearGradient id="paint29_linear" x1="229.246" y1="100.6" x2="229.246" y2="114.059" gradientUnits="userSpaceOnUse">
<stop stop-color="#2C3995"/>
<stop offset="1" stop-color="#2C3995"/>
</linearGradient>
<linearGradient id="paint30_linear" x1="241.563" y1="104.6" x2="241.563" y2="114.059" gradientUnits="userSpaceOnUse">
<stop stop-color="#2C3995"/>
<stop offset="1" stop-color="#2C3995"/>
</linearGradient>
<linearGradient id="paint31_linear" x1="259.898" y1="101.511" x2="259.898" y2="114.059" gradientUnits="userSpaceOnUse">
<stop stop-color="#2C3995"/>
<stop offset="1" stop-color="#2C3995"/>
</linearGradient>
<linearGradient id="paint32_linear" x1="272.592" y1="104.6" x2="272.592" y2="118.165" gradientUnits="userSpaceOnUse">
<stop stop-color="#2C3995"/>
<stop offset="1" stop-color="#2C3995"/>
</linearGradient>
<linearGradient id="paint33_linear" x1="285.193" y1="100.6" x2="285.193" y2="114.059" gradientUnits="userSpaceOnUse">
<stop stop-color="#2C3995"/>
<stop offset="1" stop-color="#2C3995"/>
</linearGradient>
<linearGradient id="paint34_linear" x1="297.371" y1="104.6" x2="297.371" y2="114.059" gradientUnits="userSpaceOnUse">
<stop stop-color="#2C3995"/>
<stop offset="1" stop-color="#2C3995"/>
</linearGradient>
<linearGradient id="paint35_linear" x1="308.201" y1="104.6" x2="308.201" y2="114.059" gradientUnits="userSpaceOnUse">
<stop stop-color="#2C3995"/>
<stop offset="1" stop-color="#2C3995"/>
</linearGradient>
<linearGradient id="paint36_linear" x1="318.274" y1="104.6" x2="318.274" y2="114.059" gradientUnits="userSpaceOnUse">
<stop stop-color="#2C3995"/>
<stop offset="1" stop-color="#2C3995"/>
</linearGradient>
<linearGradient id="paint37_linear" x1="329.79" y1="104.6" x2="329.79" y2="117.018" gradientUnits="userSpaceOnUse">
<stop stop-color="#2C3995"/>
<stop offset="1" stop-color="#2C3995"/>
</linearGradient>
<linearGradient id="paint38_linear" x1="341.556" y1="104.6" x2="341.556" y2="114.059" gradientUnits="userSpaceOnUse">
<stop stop-color="#2C3995"/>
<stop offset="1" stop-color="#2C3995"/>
</linearGradient>
<linearGradient id="paint39_linear" x1="353.169" y1="104.6" x2="353.169" y2="114.059" gradientUnits="userSpaceOnUse">
<stop stop-color="#2C3995"/>
<stop offset="1" stop-color="#2C3995"/>
</linearGradient>
<linearGradient id="paint40_linear" x1="364.65" y1="104.6" x2="364.65" y2="114.059" gradientUnits="userSpaceOnUse">
<stop stop-color="#2C3995"/>
<stop offset="1" stop-color="#2C3995"/>
</linearGradient>
</defs>
</svg> -->


<svg width="243" height="37" viewBox="0 0 243 37" fill="none" xmlns="http://www.w3.org/2000/svg">
<path d="M31.1676 7.35185C31.103 8.05093 31.0415 8.75556 30.982 9.46435C30.9338 10.0477 30.8871 10.6278 30.8426 11.2051V11.2269C30.4508 15.4875 30.1932 18.3023 29.199 21.1815C27.835 25.137 25.3133 28.7116 21.7039 31.7981C18.5863 34.4667 15.6594 36.138 15.6273 36.1565L15.6017 36.1718L15.5852 36.1806L15.5833 36.1801L15.582 36.1806L15.5655 36.1718L15.5398 36.1565C15.5077 36.138 12.5803 34.4667 9.46321 31.7981C9.02046 31.4199 8.59421 31.0338 8.18446 30.6407L8.10746 18.1894L14.2812 26.8551C14.5736 27.2125 14.9256 27.475 15.3102 27.6204C18.3343 28.7565 23.8187 27.3019 23.8187 27.3019L17.3882 18.9037C15.494 17.537 14.4467 18.6435 14.4467 18.6435L18.6844 24.1773C18.4754 24.4495 18.0469 24.6481 17.6055 24.7884C16.8117 25.0417 15.9738 24.7449 15.3803 24.0111L5.12829 9.98102L5.02792 27.0306C3.70104 25.194 2.6785 23.2394 1.96854 21.1815C0.974875 18.3023 0.716834 15.4875 0.324501 11.2269V11.2051C0.280501 10.6282 0.23421 10.0477 0.185168 9.46435C0.126043 8.75556 0.064625 8.05139 0 7.35185C1.38371 6.84074 2.79721 6.2838 4.23592 5.67732C8.43196 3.90556 12.1949 1.97824 15.5338 0.0365745L15.5659 0.0120375L15.5824 0L15.5838 0.00138883L15.5856 0L15.6021 0.0120375L15.6342 0.0365745C17.6733 1.22269 19.8706 2.4037 22.2282 3.5463L22.308 17.6491L16.1333 8.98333C15.8409 8.62546 15.4889 8.3625 15.1044 8.21806C12.0803 7.08194 6.59588 8.53611 6.59588 8.53611L13.0263 16.9343C14.9206 18.3019 15.967 17.1944 15.967 17.1944L11.7301 11.6611C11.9391 11.3889 12.3677 11.1898 12.809 11.0491C13.6029 10.7963 14.4407 11.0935 15.0342 11.8269L25.2862 25.8569L25.4017 5.0162C25.9055 5.23843 26.4151 5.4588 26.9312 5.67685C28.3704 6.2838 29.7834 6.84074 31.1676 7.35185Z" fill="url(#paint0_linear)"/>
<path d="M23.82 27.3009C23.82 27.3009 18.3361 28.756 15.3115 27.6194C14.927 27.4745 14.5745 27.2115 14.2826 26.8541L8.10881 18.1884L8.18581 30.6398C6.99185 29.4953 5.9386 28.2898 5.02881 27.0296L5.12918 9.98004L15.3812 24.0101C15.9752 24.7435 16.8126 25.0407 17.6064 24.7874C18.0478 24.6467 18.4768 24.4486 18.6853 24.1763L14.4476 18.6425C14.4476 18.6425 15.4949 17.5361 17.3891 18.9027L23.82 27.3009Z" fill="white"/>
<path d="M11.7314 11.6611L15.9683 17.1944C15.9683 17.1944 14.9219 18.3014 13.0276 16.9343L6.59717 8.53612C6.59717 8.53612 12.0811 7.08195 15.1057 8.21806C15.4902 8.3625 15.8427 8.62547 16.1346 8.98334L22.3084 17.6486L22.2286 3.54584C23.2562 4.04445 24.314 4.53565 25.4035 5.01667L25.288 25.8574L15.036 11.8269C14.442 11.0935 13.6046 10.7963 12.8108 11.0491C12.369 11.1898 11.94 11.3889 11.7314 11.6611Z" fill="white"/>
<path d="M51.0078 16.0625H61.707V9.19531H64.7539V26H61.707V19.1328H51.0078V26H47.9609V9.19531H51.0078V16.0625ZM84.8164 26H81.7695V21.875H71.0586V26H68.0117V17.5977C68.0117 16.3711 68.2227 15.2422 68.6445 14.2109C69.0664 13.1797 69.6523 12.293 70.4023 11.5508C71.1523 10.8086 72.0391 10.2305 73.0625 9.81641C74.0859 9.40234 75.2031 9.19531 76.4141 9.19531H83.2812C83.4922 9.19531 83.6914 9.23438 83.8789 9.3125C84.0664 9.39062 84.2305 9.5 84.3711 9.64062C84.5117 9.78125 84.6211 9.94531 84.6992 10.1328C84.7773 10.3203 84.8164 10.5195 84.8164 10.7305V26ZM71.0586 18.8281H81.7695V12.2422H76.4141C76.3203 12.2422 76.1211 12.2578 75.8164 12.2891C75.5195 12.3125 75.1719 12.3789 74.7734 12.4883C74.3828 12.5977 73.9688 12.7656 73.5312 12.9922C73.0938 13.2188 72.6914 13.5312 72.3242 13.9297C71.957 14.3281 71.6523 14.8281 71.4102 15.4297C71.1758 16.0234 71.0586 16.7461 71.0586 17.5977V18.8281ZM103.414 26H92.4219C92.1406 26 91.8359 25.9688 91.5078 25.9062C91.1875 25.8359 90.8672 25.7305 90.5469 25.5898C90.2344 25.4492 89.9336 25.2695 89.6445 25.0508C89.3555 24.8242 89.0977 24.5547 88.8711 24.2422C88.6523 23.9219 88.4766 23.5547 88.3438 23.1406C88.2109 22.7188 88.1445 22.2461 88.1445 21.7227V13.4727C88.1445 13.1914 88.1758 12.8906 88.2383 12.5703C88.3086 12.2422 88.4141 11.9219 88.5547 11.6094C88.6953 11.2891 88.8789 10.9844 89.1055 10.6953C89.332 10.4062 89.6016 10.1523 89.9141 9.93359C90.2344 9.70703 90.6016 9.52734 91.0156 9.39453C91.4297 9.26172 91.8984 9.19531 92.4219 9.19531H103.414V12.2422H92.4219C92.0234 12.2422 91.7188 12.3477 91.5078 12.5586C91.2969 12.7695 91.1914 13.082 91.1914 13.4961V21.7227C91.1914 22.1133 91.2969 22.418 91.5078 22.6367C91.7266 22.8477 92.0312 22.9531 92.4219 22.9531H103.414V26ZM123.91 26H119.586L112.73 19.1328H110.586V16.0625H112.73L119.586 9.19531H123.91L115.273 17.5977L123.91 26ZM109.367 26H106.32V9.19531H109.367V26ZM135.77 18.9688H124.777V16.2266H135.77V18.9688ZM146.012 15.1953L151.145 9.19531H155.305L148.074 17.6211L155.258 26H151.121L146.012 20.0469L140.926 26H136.777L143.949 17.6211L136.754 9.19531H140.879L146.012 15.1953ZM181.707 24.6992C181.707 24.918 181.664 25.1211 181.578 25.3086C181.5 25.4961 181.391 25.6602 181.25 25.8008C181.117 25.9336 180.957 26.0391 180.77 26.1172C180.582 26.1953 180.383 26.2344 180.172 26.2344C179.984 26.2344 179.793 26.1992 179.598 26.1289C179.41 26.0586 179.242 25.9453 179.094 25.7891L167.961 14.1641V26H164.914V10.4961C164.914 10.1836 165 9.90234 165.172 9.65234C165.352 9.39453 165.578 9.20312 165.852 9.07812C166.141 8.96094 166.438 8.93359 166.742 8.99609C167.047 9.05078 167.309 9.19141 167.527 9.41797L178.66 21.0312V9.19531H181.707V24.6992ZM202.895 19.2031C202.895 20.2266 202.719 21.168 202.367 22.0273C202.016 22.8867 201.527 23.6289 200.902 24.2539C200.277 24.8789 199.535 25.3672 198.676 25.7188C197.824 26.0625 196.895 26.2344 195.887 26.2344H191.762C190.754 26.2344 189.82 26.0625 188.961 25.7188C188.102 25.3672 187.359 24.8789 186.734 24.2539C186.109 23.6289 185.617 22.8867 185.258 22.0273C184.906 21.168 184.73 20.2266 184.73 19.2031V15.9922C184.73 14.9766 184.906 14.0391 185.258 13.1797C185.617 12.3125 186.109 11.5703 186.734 10.9531C187.359 10.3281 188.102 9.83984 188.961 9.48828C189.82 9.13672 190.754 8.96094 191.762 8.96094H195.887C196.895 8.96094 197.824 9.13672 198.676 9.48828C199.535 9.83984 200.277 10.3281 200.902 10.9531C201.527 11.5703 202.016 12.3125 202.367 13.1797C202.719 14.0391 202.895 14.9766 202.895 15.9922V19.2031ZM199.848 15.9922C199.848 15.3906 199.75 14.8477 199.555 14.3633C199.367 13.8711 199.098 13.4531 198.746 13.1094C198.402 12.7578 197.984 12.4883 197.492 12.3008C197.008 12.1055 196.473 12.0078 195.887 12.0078H191.762C191.168 12.0078 190.625 12.1055 190.133 12.3008C189.648 12.4883 189.23 12.7578 188.879 13.1094C188.527 13.4531 188.254 13.8711 188.059 14.3633C187.871 14.8477 187.777 15.3906 187.777 15.9922V19.2031C187.777 19.8047 187.871 20.3516 188.059 20.8438C188.254 21.3281 188.527 21.7461 188.879 22.0977C189.23 22.4414 189.648 22.7109 190.133 22.9062C190.625 23.0938 191.168 23.1875 191.762 23.1875H195.863C196.457 23.1875 196.996 23.0938 197.48 22.9062C197.973 22.7109 198.395 22.4414 198.746 22.0977C199.098 21.7461 199.367 21.3281 199.555 20.8438C199.75 20.3516 199.848 19.8047 199.848 19.2031V15.9922ZM222.676 18.9688C222.676 19.9922 222.496 20.9336 222.137 21.793C221.785 22.6523 221.297 23.3945 220.672 24.0195C220.047 24.6367 219.305 25.1211 218.445 25.4727C217.586 25.8242 216.652 26 215.645 26H207.418C207.199 26 206.996 25.9609 206.809 25.8828C206.621 25.8047 206.457 25.6992 206.316 25.5664C206.184 25.4258 206.078 25.2617 206 25.0742C205.922 24.8867 205.883 24.6836 205.883 24.4648V10.7305C205.883 10.5195 205.922 10.3203 206 10.1328C206.078 9.94531 206.184 9.78125 206.316 9.64062C206.457 9.5 206.621 9.39062 206.809 9.3125C206.996 9.23438 207.199 9.19531 207.418 9.19531H215.645C216.652 9.19531 217.586 9.37109 218.445 9.72266C219.305 10.0742 220.047 10.5625 220.672 11.1875C221.297 11.8047 221.785 12.5469 222.137 13.4141C222.496 14.2734 222.676 15.2109 222.676 16.2266V18.9688ZM219.629 16.2266C219.629 15.6328 219.531 15.0898 219.336 14.5977C219.148 14.1055 218.879 13.6875 218.527 13.3438C218.176 12.9922 217.754 12.7227 217.262 12.5352C216.777 12.3398 216.238 12.2422 215.645 12.2422H208.93V22.9531H215.645C216.238 22.9531 216.777 22.8594 217.262 22.6719C217.754 22.4766 218.176 22.207 218.527 21.8633C218.879 21.5117 219.148 21.0938 219.336 20.6094C219.531 20.1172 219.629 19.5703 219.629 18.9688V16.2266ZM239.48 19.1328H229.859V16.0625H239.48V19.1328ZM240.852 26H229.859C229.438 26 228.977 25.9258 228.477 25.7773C227.977 25.6289 227.512 25.3867 227.082 25.0508C226.66 24.707 226.305 24.2656 226.016 23.7266C225.734 23.1797 225.594 22.5117 225.594 21.7227V10.7305C225.594 10.5195 225.633 10.3203 225.711 10.1328C225.789 9.94531 225.895 9.78125 226.027 9.64062C226.168 9.5 226.332 9.39062 226.52 9.3125C226.707 9.23438 226.91 9.19531 227.129 9.19531H240.852V12.2422H228.641V21.7227C228.641 22.1211 228.746 22.4258 228.957 22.6367C229.168 22.8477 229.477 22.9531 229.883 22.9531H240.852V26Z" fill="url(#paint1_linear)"/>
<defs>
<linearGradient id="paint0_linear" x1="15.5838" y1="-0.0120262" x2="15.5838" y2="36.1917" gradientUnits="userSpaceOnUse">
<stop offset="0.1609" stop-color="#28A7DE"/>
<stop offset="0.2903" stop-color="#289AD6"/>
<stop offset="0.5276" stop-color="#2A79C0"/>
<stop offset="0.8443" stop-color="#2C439C"/>
<stop offset="0.9017" stop-color="#2C3995"/>
</linearGradient>
<linearGradient id="paint1_linear" x1="144.168" y1="9" x2="144.168" y2="27" gradientUnits="userSpaceOnUse">
<stop stop-color="#28A6DE"/>
<stop offset="1" stop-color="#2C3995"/>
</linearGradient>
</defs>
</svg>
